<?xml version="1.0" encoding="utf-8"?>
<!-- Generator: Adobe Illustrator 24.1.0, SVG Export Plug-In . SVG Version: 6.00 Build 0)  -->
<svg version="1.1" id="Layer_1" xmlns="http://www.w3.org/2000/svg" xmlns:xlink="http://www.w3.org/1999/xlink" x="0px" y="0px"
	 viewBox="0 0 400 400" style="enable-background:new 0 0 400 400;" xml:space="preserve">
<style type="text/css">
	.st0{fill:#2C343B;}
	.st1{fill:#FFFFFF;}
</style>
<circle class="st0" cx="200" cy="200" r="196.37"/>
<path class="st1" d="M133.28,248.63c-2.72-3.12,14.36-47.78,36.97-67.7c3.54-3.12,7.77-6.62,7.77-6.62
	c8.87-7.34,11.57-8.84,14.1-11.08c17.4-15.38,15.33-55.39,14.82-59.41c-0.03-0.25-0.14-1,0.14-1.87c1.34-4.09,9.42-4.81,10.36-4.89
	c8.83-0.79,15.98,4.51,21.15,8.34c0,0,9.99,7.41,13.23,16.83c0.4,1.16,0.58,2.3,0.58,2.3c0.19,1.22,0.15,2.15,0.14,2.45
	c-0.24,7.51,2.1,23.64,2.16,47.9c0.01,2.58-0.02,3.74,0.86,4.46c5.38,4.37,33.41-17.14,39.61-27.03c0.3-0.48,1.15-1.89,2.83-2.89
	c4.02-2.39,10.15-0.81,13.95,1.87c7.59,5.33,8.18,16.56,6.9,23.3c-0.67,3.53-1.89,6.07-3.4,8.94
	c-9.55,18.17-22.12,33.54-26.87,47.03c-0.49,1.39-1.22,3.69-1.34,6.72c-0.29,7.26,3.21,12.71,4.03,14.11
	c7.26,12.29,9.9,52.42,13.77,111.18c0.36,5.44,0.78,12.49,1.68,22.84c0.92,10.59,1.14,10.88,1.01,11.76
	c-3.71,25.22-219.76,11.53-222.7-9.07c-0.74-5.16,0-11.42,0-11.42c0.76-6.48,2.66-11.25,3.82-14.04
	c3.66-8.81,13.17-29.71,26.55-57.05c-8.98-2.41-44.39-12.38-43.93-24.73c0.02-0.43-0.51-1.82,1.19-3.57
	C88.79,260.61,129.88,248.38,133.28,248.63"/>
</svg>
